<svg xmlns="http://www.w3.org/2000/svg" width="1024" height="1024" viewBox="0 0 1024 1024"><rect width="1024" height="1024" fill="#8E2C48"/><rect x="200.0" y="200.0" width="80.7" height="80.7" rx="16" fill="#FFFFFF" fill-opacity="1"/><rect x="308.7" y="200.0" width="80.7" height="80.7" rx="16" fill="#FFFFFF" fill-opacity="1"/><rect x="417.3" y="200.0" width="80.7" height="80.7" rx="16" fill="#FFFFFF" fill-opacity="1"/><rect x="526.0" y="200.0" width="80.7" height="80.7" rx="16" fill="#FFFFFF" fill-opacity="1"/><rect x="634.7" y="200.0" width="80.7" height="80.7" rx="16" fill="#FFFFFF" fill-opacity="1"/><rect x="743.3" y="200.0" width="80.7" height="80.7" rx="16" fill="#FFFFFF" fill-opacity="1"/><rect x="200.0" y="308.7" width="80.7" height="80.7" rx="16" fill="#FFFFFF" fill-opacity="1"/><rect x="308.7" y="308.7" width="80.7" height="80.7" rx="16" fill="#FFFFFF" fill-opacity="1"/><rect x="417.3" y="308.7" width="80.7" height="80.7" rx="16" fill="#FFFFFF" fill-opacity="1"/><rect x="526.0" y="308.7" width="80.7" height="80.7" rx="16" fill="#FFFFFF" fill-opacity="1"/><rect x="634.7" y="308.7" width="80.7" height="80.7" rx="16" fill="#FFFFFF" fill-opacity="1"/><rect x="743.3" y="308.7" width="80.7" height="80.7" rx="16" fill="#FFFFFF" fill-opacity="1"/><rect x="200.0" y="417.3" width="80.7" height="80.7" rx="16" fill="#FFFFFF" fill-opacity="1"/><rect x="308.7" y="417.3" width="80.7" height="80.7" rx="16" fill="#FFFFFF" fill-opacity="1"/><rect x="417.3" y="417.3" width="80.7" height="80.7" rx="16" fill="#FFFFFF" fill-opacity="1"/><rect x="526.0" y="417.3" width="80.7" height="80.7" rx="16" fill="#FFFFFF" fill-opacity="0.26"/><rect x="634.7" y="417.3" width="80.7" height="80.7" rx="16" fill="#FFFFFF" fill-opacity="0.26"/><rect x="743.3" y="417.3" width="80.7" height="80.7" rx="16" fill="#FFFFFF" fill-opacity="0.26"/><rect x="200.0" y="526.0" width="80.7" height="80.7" rx="16" fill="#FFFFFF" fill-opacity="0.26"/><rect x="308.7" y="526.0" width="80.7" height="80.7" rx="16" fill="#FFFFFF" fill-opacity="0.26"/><rect x="417.3" y="526.0" width="80.7" height="80.7" rx="16" fill="#FFFFFF" fill-opacity="0.26"/><rect x="526.0" y="526.0" width="80.7" height="80.7" rx="16" fill="#FFFFFF" fill-opacity="0.26"/><rect x="634.7" y="526.0" width="80.7" height="80.7" rx="16" fill="#FFFFFF" fill-opacity="0.26"/><rect x="743.3" y="526.0" width="80.7" height="80.7" rx="16" fill="#FFFFFF" fill-opacity="0.26"/><rect x="200.0" y="634.7" width="80.7" height="80.7" rx="16" fill="#FFFFFF" fill-opacity="0.26"/><rect x="308.7" y="634.7" width="80.7" height="80.7" rx="16" fill="#FFFFFF" fill-opacity="0.26"/><rect x="417.3" y="634.7" width="80.7" height="80.7" rx="16" fill="#FFFFFF" fill-opacity="0.26"/><rect x="526.0" y="634.7" width="80.7" height="80.7" rx="16" fill="#FFFFFF" fill-opacity="0.26"/><rect x="634.7" y="634.7" width="80.7" height="80.7" rx="16" fill="#FFFFFF" fill-opacity="0.26"/><rect x="743.3" y="634.7" width="80.7" height="80.7" rx="16" fill="#FFFFFF" fill-opacity="0.26"/><rect x="200.0" y="743.3" width="80.7" height="80.7" rx="16" fill="#FFFFFF" fill-opacity="0.26"/><rect x="308.7" y="743.3" width="80.7" height="80.7" rx="16" fill="#FFFFFF" fill-opacity="0.26"/><rect x="417.3" y="743.3" width="80.7" height="80.7" rx="16" fill="#FFFFFF" fill-opacity="0.26"/><rect x="526.0" y="743.3" width="80.7" height="80.7" rx="16" fill="#FFFFFF" fill-opacity="0.26"/><rect x="634.7" y="743.3" width="80.7" height="80.7" rx="16" fill="#FFFFFF" fill-opacity="0.26"/><rect x="743.3" y="743.3" width="80.7" height="80.7" rx="16" fill="#FFFFFF" fill-opacity="0.26"/></svg>